<svg width="240" height="54" viewBox="0 0 240 54" fill="none" xmlns="http://www.w3.org/2000/svg">
<g clip-path="url(#clip0_97_984)">
<path d="M38.7215 6.82606C37.9626 5.77997 37.0753 4.8322 36.0802 4.00477C35.0871 3.17928 34.0045 2.4665 32.8526 1.87964C31.6955 1.29265 30.4748 0.839162 29.2142 0.527999C27.9425 0.211271 26.6364 0.0514041 25.3254 0.0520025C23.7812 0.04369 22.2431 0.247244 20.7547 0.656914C19.3459 1.04653 17.996 1.62254 16.7414 2.36952C15.5088 3.10531 14.3807 4.00179 13.3871 5.03511C11.796 6.68224 10.5614 8.63641 9.75965 10.7768H17.571C17.5779 10.7639 17.5869 10.752 17.5949 10.7401C18.1774 9.89434 18.8831 9.13936 19.6888 8.49997C20.4907 7.86526 21.3859 7.35689 22.3431 6.99265C23.293 6.62698 24.3028 6.43938 25.3215 6.4393C26.4392 6.43022 27.5509 6.60409 28.6119 6.95397C29.596 7.27932 30.516 7.77187 31.331 8.40974C32.1281 9.04017 32.8147 9.79745 33.3631 10.6509C33.39 10.6916 33.417 10.7342 33.4429 10.7768C33.9722 11.6275 34.3689 12.5529 34.6194 13.5218H8.97892C8.76102 14.6325 8.65215 15.7617 8.65386 16.8934C8.65235 17.8235 8.72739 18.7521 8.87821 19.6701C9.0063 20.4458 9.19295 21.2109 9.43659 21.9588C9.60948 22.4902 9.81119 23.012 10.0408 23.5217C11.8432 27.5829 15.1496 30.7974 19.273 32.4972C21.3714 33.3748 23.6265 33.8214 25.9028 33.8102C28.0605 33.8102 30.0414 33.441 31.8455 32.7025C33.6589 31.9591 35.3418 30.9335 36.831 29.664C37.4871 29.1828 37.8152 28.7018 37.8152 28.2212C37.8129 28.0239 37.764 27.83 37.6726 27.6549C37.545 27.4171 37.3933 27.1928 37.2199 26.9856C37.0115 26.7267 36.7453 26.4104 36.4222 26.0326C36.0992 25.6547 35.6963 25.1827 35.2257 24.6155C35.0696 24.4053 34.8708 24.23 34.6424 24.1008C34.4805 24.0079 34.2986 23.9548 34.1119 23.9461C33.9008 23.9464 33.6939 24.0044 33.5137 24.1137C33.2994 24.2433 33.099 24.3941 32.9154 24.5639C32.9119 24.5634 32.9083 24.5637 32.9049 24.5649C32.9015 24.566 32.8985 24.5679 32.896 24.5704C32.8934 24.5729 32.8916 24.5759 32.8904 24.5793C32.8893 24.5826 32.889 24.5862 32.8895 24.5897C32.4578 24.9759 31.9942 25.3252 31.5035 25.6339C30.9565 25.9803 30.3803 26.2789 29.7815 26.5264C29.1331 26.793 28.4616 27.0001 27.7753 27.1452C27.0386 27.3017 26.2872 27.3791 25.5338 27.3763C24.495 27.3733 23.4634 27.2038 22.4787 26.8745C21.4592 26.5401 20.5045 26.0351 19.6559 25.3811C18.7787 24.7039 18.0217 23.8853 17.4164 22.9594C17.2061 22.6425 17.0189 22.3111 16.856 21.9677C16.5156 21.2396 16.2729 20.4701 16.1341 19.679H39.1054C39.2141 19.679 39.3198 19.679 39.4205 19.679V7.89307C39.2081 7.53112 38.9718 7.17512 38.7215 6.82606Z" fill="#F5F5F5"/>
<path d="M34.6294 19.6767H0.920325C0.676239 19.6767 0.442149 19.5803 0.269554 19.4087C0.0969592 19.237 0 19.0042 0 18.7614V14.4368C0 14.194 0.0969592 13.9612 0.269554 13.7896C0.442149 13.6179 0.676239 13.5215 0.920325 13.5215H34.6294V19.6767Z" fill="#F5F5F5"/>
<path d="M69.1103 22.0188C68.185 18.6651 68.185 15.1255 69.1103 11.7719C69.3919 10.767 69.753 9.78586 70.1902 8.83758C70.1762 8.79295 70.1632 8.74833 70.1483 8.7047C69.6278 7.06374 68.7872 5.54093 67.6745 4.22337C66.5745 2.94296 65.2051 1.91855 63.6631 1.2226C62.0751 0.495383 60.262 0.131773 58.2239 0.131773C57.0626 0.118134 55.9046 0.257177 54.7799 0.545295C53.8322 0.791662 52.9191 1.15478 52.0618 1.62621C51.3108 2.03955 50.6183 2.55045 50.0028 3.14544C49.4585 3.67123 48.9682 4.24957 48.539 4.87192L48.2539 2.14088C48.1692 1.74972 48.0012 1.38114 47.7613 1.05997C47.52 0.733711 47.1501 0.564137 46.6485 0.564137H44.0331C43.7908 0.564137 43.5346 0.570087 43.2554 0.577029C42.9762 0.583971 42.7728 0.660333 42.6342 0.798174C42.4447 0.865607 42.2453 1.03716 42.0359 1.31185C41.8265 1.58655 41.7248 1.84438 41.7248 2.08436V31.7351C41.7248 32.2329 41.8578 32.615 42.1237 32.8814C42.3896 33.1479 42.8083 33.2801 43.38 33.2781H47.6526C47.937 33.2896 48.2173 33.2077 48.4503 33.0451C48.663 32.8854 48.8289 32.6721 48.9309 32.4273C49.0481 32.1477 49.1221 31.8522 49.1503 31.5506C49.1853 31.2259 49.2029 30.8995 49.2031 30.5728V13.8812C49.2037 12.8959 49.4529 11.9265 49.928 11.0619C50.3762 10.2502 50.9735 9.52941 51.6889 8.93674C52.3883 8.35832 53.1808 7.90137 54.0331 7.58511C54.8218 7.2794 55.6595 7.11782 56.5059 7.10812C57.6619 7.10812 58.6806 7.31406 59.562 7.72593C60.4089 8.1137 61.1634 8.67579 61.7756 9.37506C62.371 10.0611 62.8323 10.8518 63.1356 11.7065C63.4445 12.5616 63.602 13.4634 63.6013 14.3721V31.5278C63.6013 32.1793 63.717 32.6345 63.9513 32.8923C64.1856 33.1502 64.6493 33.2791 65.3363 33.2791H69.2728C69.8242 33.2791 70.249 33.1244 70.5411 32.814C70.8333 32.5036 70.9819 32.0425 70.9819 31.4257V26.5041C70.1735 25.0919 69.5449 23.5852 69.1103 22.0188Z" fill="#F5F5F5"/>
<path d="M104.734 1.27449C104.601 1.07568 104.418 0.915764 104.202 0.811378C103.965 0.695164 103.713 0.612712 103.453 0.56644C103.179 0.514874 102.901 0.48865 102.623 0.488101H100.03C99.8126 0.483677 99.5949 0.505652 99.3824 0.553548C99.2188 0.591248 99.0703 0.67652 98.9556 0.798492C98.8319 0.93831 98.7352 1.09969 98.6704 1.27449C98.5937 1.47282 98.5109 1.72569 98.4242 2.0341L98.0632 4.78696C97.4522 4.07754 96.7759 3.42649 96.0431 2.84231C95.2953 2.24752 94.4829 1.73793 93.6211 1.32308C92.7244 0.894147 91.7822 0.566188 90.8123 0.345301C89.7759 0.108983 88.7157 -0.00781203 87.6524 -0.00277338C86.1336 -0.00774008 84.6214 0.195817 83.1585 0.602139C81.7412 0.997675 80.3802 1.57082 79.1083 2.3078C76.5909 3.76191 74.498 5.84338 73.0359 8.34703C72.8993 8.57908 72.7697 8.8141 72.644 9.05309C72.0904 10.1173 71.6486 11.2356 71.3259 12.39C71.1896 12.8746 71.0766 13.3658 70.9868 13.8636C70.6259 15.8774 70.6259 17.9387 70.9868 19.9525C71.0752 20.443 71.1873 20.9273 71.3229 21.4052C71.7169 22.8203 72.2916 24.1794 73.0329 25.4492C73.1153 25.5914 73.2004 25.7319 73.2882 25.8707C73.9665 26.9583 74.7667 27.966 75.6732 28.8745C76.6957 29.9005 77.8496 30.7881 79.1053 31.5143C80.3777 32.2502 81.7395 32.8214 83.1575 33.214C84.6204 33.6203 86.1326 33.8238 87.6514 33.8189C88.6359 33.8207 89.6176 33.7129 90.578 33.4976C91.5043 33.2905 92.4065 32.9884 93.2701 32.5962C94.1021 32.2177 94.8955 31.7604 95.6392 31.2306C96.3537 30.724 97.0253 30.1602 97.6474 29.5448L97.802 31.7344C97.8844 32.1321 98.0472 32.5089 98.2806 32.8421C98.4973 33.1336 98.8815 33.2797 99.4332 33.2804H102.671C102.953 33.2813 103.234 33.2594 103.512 33.215C103.761 33.1788 104.002 33.1007 104.224 32.9839C104.447 32.8684 104.631 32.6914 104.755 32.4741C104.879 32.2568 104.937 32.0085 104.922 31.7592V2.0103C104.933 1.75197 104.868 1.49613 104.734 1.27449ZM96.8228 20.7973C96.3232 21.9972 95.6026 23.0936 94.698 24.0302C93.7942 24.9618 92.7169 25.7098 91.5262 26.2327C90.2911 26.7771 88.9535 27.0537 87.6026 27.0438C86.285 27.0574 84.9808 26.7803 83.7837 26.2327C82.6341 25.7031 81.6 24.9549 80.7395 24.0302C79.8675 23.0887 79.1821 21.9918 78.7194 20.7973C77.7529 18.2939 77.7529 15.5232 78.7194 13.0197C79.1824 11.8254 79.8677 10.7286 80.7395 9.78693C81.6019 8.861 82.6354 8.10884 83.7837 7.57154C84.9784 7.01549 86.2836 6.73386 87.6026 6.74748C88.9549 6.73762 90.2934 7.01873 91.5262 7.57154C92.7158 8.10221 93.7923 8.85417 94.698 9.78693C95.6024 10.7236 96.323 11.82 96.8228 13.0197C97.8585 15.51 97.8585 18.3071 96.8228 20.7973Z" fill="#F5F5F5"/>
<path d="M154.056 6.82605C153.297 5.7795 152.41 4.83167 151.414 4.00477C150.422 3.17924 149.341 2.46645 148.19 1.87963C147.033 1.29265 145.812 0.839158 144.551 0.527996C143.28 0.211267 141.973 0.0514005 140.662 0.0519988C139.118 0.0437495 137.58 0.247302 136.092 0.656911C134.683 1.04675 133.333 1.62275 132.078 2.36951C130.846 3.10556 129.718 4.00202 128.724 5.0351C127.734 6.06346 126.88 7.21314 126.182 8.45634C125.765 9.20049 125.405 9.97486 125.105 10.7729H132.916C132.923 10.76 132.932 10.7481 132.94 10.7362C133.523 9.8906 134.228 9.13567 135.034 8.49601C135.836 7.86151 136.731 7.35315 137.688 6.98868C138.638 6.62301 139.648 6.43541 140.666 6.43533C141.784 6.42642 142.896 6.60031 143.957 6.95001C144.941 7.27507 145.861 7.76764 146.675 8.40577C147.472 9.0362 148.159 9.79348 148.707 10.6469C148.734 10.6876 148.762 10.7302 148.787 10.7729C149.317 11.6233 149.713 12.5488 149.963 13.5178H124.313C124.095 14.6286 123.987 15.7578 123.989 16.8894C123.987 17.8195 124.062 18.7482 124.213 19.6661C124.341 20.4419 124.527 21.2069 124.771 21.9549C124.944 22.4863 125.145 23.008 125.375 23.5177C127.177 27.579 130.484 30.7934 134.607 32.4933C136.705 33.3708 138.961 33.8174 141.237 33.8062C143.396 33.8062 145.377 33.437 147.18 32.6985C148.993 31.9551 150.676 30.9295 152.165 29.6601C152.821 29.1788 153.149 28.6978 153.149 28.2172C153.147 28.0199 153.099 27.8258 153.007 27.651C152.879 27.4131 152.727 27.1888 152.554 26.9816C152.347 26.7228 152.079 26.4064 151.756 26.0286C151.433 25.6508 151.03 25.1788 150.56 24.6115C150.404 24.4009 150.205 24.2254 149.976 24.0968C149.815 24.0039 149.633 23.9509 149.446 23.9421C149.235 23.9425 149.028 24.0004 148.848 24.1097C148.634 24.2395 148.433 24.3904 148.249 24.56C148.246 24.5595 148.242 24.5598 148.239 24.5609C148.236 24.562 148.233 24.5639 148.23 24.5664C148.228 24.5689 148.226 24.572 148.224 24.5753C148.223 24.5787 148.223 24.5822 148.224 24.5857C147.792 24.9721 147.328 25.3215 146.838 25.63C146.291 25.9763 145.714 26.275 145.116 26.5225C144.467 26.7891 143.796 26.9963 143.109 27.1413C142.373 27.2977 141.622 27.3752 140.869 27.3723C139.83 27.3693 138.798 27.1999 137.813 26.8705C136.793 26.5359 135.839 26.0309 134.99 25.3771C134.113 24.6999 133.356 23.8814 132.75 22.9554C132.54 22.6386 132.353 22.3072 132.19 21.9638C131.85 21.2356 131.608 20.4661 131.469 19.675H154.439C154.545 19.675 154.647 19.675 154.745 19.675V7.87424C154.533 7.51922 154.303 7.16983 154.056 6.82605ZM157.047 16.3589V17.5796C157.054 17.4081 157.057 17.2236 157.057 17.0273C157.059 16.8005 157.057 16.5777 157.05 16.3589H157.047Z" fill="#F5F5F5"/>
<path d="M204.183 22.0192C203.258 18.6652 203.258 15.1253 204.183 11.7713C204.435 10.8735 204.75 9.99442 205.125 9.14043C205.085 8.99466 205.044 8.84987 205 8.70509C204.514 7.06818 203.719 5.53846 202.656 4.19798C201.614 2.90598 200.29 1.86691 198.784 1.15952C197.239 0.421066 195.448 0.0518388 193.41 0.0518388C192.251 0.0480359 191.095 0.178152 189.966 0.439576C188.91 0.680456 187.888 1.04913 186.922 1.53735C186.028 1.99067 185.205 2.56944 184.476 3.2559C183.792 3.89664 183.223 4.64888 182.793 5.4802C182.302 4.65561 181.72 3.88825 181.057 3.19243C180.424 2.53495 179.701 1.97003 178.908 1.51454C178.073 1.0414 177.173 0.691962 176.236 0.47726C175.157 0.234398 174.052 0.11726 172.946 0.128199C171.667 0.128199 170.55 0.253145 169.592 0.503044C168.714 0.720508 167.869 1.05403 167.08 1.49471C166.397 1.88289 165.774 2.36609 165.228 2.92965C164.724 3.45515 164.265 4.02135 163.855 4.62241L163.571 2.14326C163.487 1.74882 163.319 1.37686 163.078 1.05243C162.837 0.724189 162.465 0.556598 161.966 0.556598H159.355C158.699 0.556598 158.151 0.663696 157.711 0.877896C157.271 1.09209 157.051 1.4914 157.05 2.07582V31.7265C157.05 32.2244 157.183 32.6065 157.449 32.8729C157.717 33.1397 158.135 33.2696 158.705 33.2696H162.979C163.183 33.276 163.387 33.2416 163.578 33.1686C163.769 33.0955 163.944 32.9852 164.091 32.8441C164.237 32.7028 164.352 32.5328 164.428 32.345C164.503 32.1571 164.539 31.9556 164.532 31.7533V13.7725C164.531 12.801 164.752 11.8419 165.179 10.9681C165.57 10.1776 166.112 9.47028 166.775 8.88557C167.411 8.32681 168.144 7.88675 168.937 7.58649C169.697 7.29264 170.505 7.14003 171.32 7.13627C172.459 7.13627 173.443 7.34222 174.272 7.75409C175.063 8.13581 175.758 8.68959 176.305 9.37446C176.836 10.0537 177.232 10.8279 177.471 11.6553C177.721 12.5036 177.848 13.3832 177.846 14.2673V31.5312C177.846 32.1837 177.959 32.6385 178.184 32.8957C178.407 33.1525 178.865 33.2825 179.556 33.2825H183.515C184.636 33.2825 185.197 32.665 185.197 31.43V14.2624C185.184 13.2576 185.356 12.2589 185.703 11.3151C186.011 10.4777 186.482 9.70851 187.089 9.05118C187.674 8.42604 188.388 7.93446 189.183 7.61029C190.021 7.2704 190.919 7.09983 191.824 7.10851C192.965 7.10851 193.945 7.31015 194.764 7.71343C195.553 8.09276 196.251 8.63662 196.809 9.30802C197.36 9.98061 197.77 10.7562 198.014 11.5888C198.273 12.4487 198.404 13.3418 198.403 14.2396V31.5302C198.403 32.1827 198.519 32.6375 198.753 32.8947C198.985 33.1516 199.451 33.2815 200.138 33.2815H204.074C204.627 33.2815 205.05 33.1221 205.344 32.8035C205.637 32.4848 205.784 32.0171 205.783 31.4003V26.0086C205.104 24.7412 204.568 23.4033 204.183 22.0192Z" fill="#F5F5F5"/>
<path d="M239.806 1.27446C239.673 1.07565 239.49 0.915732 239.274 0.811346C239.037 0.695129 238.784 0.612679 238.523 0.566408C238.25 0.514819 237.973 0.488594 237.695 0.488069H235.102C234.885 0.483637 234.667 0.505613 234.455 0.553516C234.291 0.591427 234.143 0.67665 234.027 0.79846C233.904 0.938044 233.807 1.0995 233.743 1.27446C233.648 1.52328 233.566 1.77682 233.497 2.03407L233.134 4.7899C232.523 4.08049 231.847 3.42943 231.115 2.84525C230.366 2.25132 229.554 1.7418 228.693 1.32602C227.795 0.897208 226.853 0.569257 225.882 0.348241C224.846 0.111756 223.786 -0.00504253 222.723 0.000166842C221.205 -0.00472123 219.693 0.198841 218.23 0.605085C216.812 0.998722 215.451 1.57021 214.178 2.30578C211.66 3.76038 209.567 5.8417 208.104 8.34501C207.904 8.6792 207.724 9.01835 207.551 9.36643C207.072 10.3353 206.685 11.3466 206.396 12.387C205.583 15.3378 205.583 18.4515 206.396 21.4022C206.786 22.8073 207.356 24.1569 208.091 25.4185C208.097 25.4274 208.101 25.4363 208.107 25.4462C208.837 26.6951 209.725 27.8461 210.749 28.8714C211.771 29.8979 212.925 30.7855 214.181 31.5112C215.453 32.2473 216.815 32.8185 218.233 33.211C219.696 33.6172 221.208 33.8208 222.726 33.8159C223.711 33.8177 224.692 33.7099 225.653 33.4946C226.579 33.2873 227.481 32.9853 228.345 32.5931C229.177 32.2147 229.971 31.7574 230.715 31.2276C231.429 30.7213 232.1 30.1574 232.721 29.5418L232.877 31.7314C232.959 32.1291 233.123 32.506 233.356 32.8391C233.573 33.1306 233.955 33.2774 234.509 33.2774H237.746C238.027 33.2784 238.309 33.2565 238.587 33.2119C238.836 33.1757 239.077 33.0975 239.3 32.9809C239.523 32.866 239.708 32.6891 239.832 32.4716C239.956 32.2542 240.014 32.0056 239.998 31.7562V2.01027C240.008 1.75154 239.941 1.49567 239.806 1.27446ZM231.894 20.7973C231.394 21.9969 230.674 23.0932 229.771 24.0301C228.866 24.9611 227.789 25.7091 226.598 26.2326C225.363 26.7769 224.025 27.0534 222.674 27.0438C221.356 27.0571 220.052 26.7801 218.854 26.2326C217.705 25.7031 216.671 24.9548 215.811 24.0301C214.939 23.0891 214.254 21.9921 213.792 20.7973C212.826 18.2939 212.826 15.5231 213.792 13.0197C214.254 11.825 214.939 10.7281 215.811 9.78689C216.673 8.861 217.706 8.10884 218.854 7.57151C220.05 7.01567 221.355 6.73405 222.674 6.74744C224.027 6.73778 225.365 7.01888 226.598 7.57151C227.787 8.10296 228.864 8.85482 229.771 9.78689C230.674 10.7239 231.394 11.8203 231.894 13.0197C232.929 15.5099 232.929 18.3071 231.894 20.7973Z" fill="#F5F5F5"/>
<path d="M149.963 19.6767H116.254C116.01 19.6767 115.776 19.5803 115.604 19.4087C115.431 19.237 115.334 19.0042 115.334 18.7614V14.4368C115.334 14.194 115.431 13.9612 115.604 13.7896C115.776 13.6179 116.01 13.5215 116.254 13.5215H149.963V19.6767Z" fill="#F5F5F5"/>
<path d="M42.5923 41.9345C42.5901 41.8854 42.5986 41.8365 42.6172 41.7909C42.6357 41.7454 42.664 41.7044 42.7 41.6707C42.7749 41.6034 42.8733 41.5678 42.9742 41.5716H51.6979C51.7954 41.571 51.8902 41.6032 51.9671 41.6628C52.0083 41.6955 52.0419 41.7367 52.0655 41.7837C52.0891 41.8306 52.1021 41.8821 52.1037 41.9345V43.3774C52.1066 43.4827 52.0712 43.5855 52.004 43.6669C51.9667 43.7087 51.9205 43.7414 51.8686 43.7627C51.8168 43.784 51.7608 43.7933 51.7048 43.7899H48.554V53.4398C48.5551 53.537 48.5195 53.6311 48.4543 53.7036C48.418 53.7425 48.3736 53.773 48.3241 53.7929C48.2746 53.8127 48.2214 53.8215 48.1681 53.8186H46.5229C46.4228 53.8178 46.3267 53.7795 46.2537 53.7115C46.2148 53.6778 46.1838 53.636 46.1629 53.589C46.1421 53.5421 46.1319 53.4911 46.133 53.4398V43.7899H42.9742C42.9242 43.7924 42.8741 43.7848 42.8271 43.7678C42.78 43.7508 42.7368 43.7246 42.7 43.6908C42.6616 43.6493 42.6322 43.6005 42.6137 43.5472C42.5952 43.494 42.5879 43.4375 42.5923 43.3813V41.9345Z" fill="#F5F5F5"/>
<path d="M56.5318 41.9668C56.5318 41.7023 56.6535 41.5701 56.8967 41.5701H64.8905C64.9476 41.5645 65.0052 41.5724 65.0586 41.5933C65.112 41.6141 65.1597 41.6473 65.1976 41.6901C65.26 41.7767 65.2923 41.8811 65.2894 41.9876V43.4444C65.2907 43.5419 65.2551 43.6365 65.1897 43.7091C65.1492 43.7496 65.1005 43.7809 65.0468 43.8009C64.9932 43.8209 64.9358 43.8292 64.8786 43.8252H58.9767V46.3241H63.5205C63.5672 46.3163 63.615 46.3186 63.6608 46.3307C63.7066 46.3429 63.7492 46.3646 63.7857 46.3946C63.8226 46.4332 63.8506 46.4794 63.8679 46.5299C63.8851 46.5805 63.8911 46.6341 63.8854 46.6871V48.1795C63.8868 48.274 63.8578 48.3664 63.8027 48.4433C63.772 48.4834 63.7315 48.5151 63.6851 48.5354C63.6387 48.5557 63.5879 48.5639 63.5375 48.5594H58.9767V51.5532H65.088C65.2425 51.5532 65.3452 51.5859 65.3951 51.6523C65.4519 51.7437 65.478 51.8507 65.4698 51.9578V53.4651C65.4698 53.6958 65.3482 53.8115 65.1049 53.8122H56.8947C56.8021 53.8148 56.7113 53.7857 56.6375 53.7299C56.5998 53.6976 56.5703 53.6568 56.5516 53.611C56.5328 53.5651 56.5254 53.5154 56.5298 53.4661L56.5318 41.9668Z" fill="#F5F5F5"/>
<path d="M79.204 42.4616C79.2674 42.4981 79.3235 42.5458 79.3695 42.6024C79.4141 42.6589 79.4373 42.729 79.4353 42.8008C79.434 42.8671 79.4173 42.9323 79.3865 42.9912L78.5818 44.3517C78.5507 44.4047 78.5074 44.4496 78.4553 44.4825C78.4033 44.5155 78.3441 44.5356 78.2827 44.5411C78.2433 44.54 78.2043 44.533 78.167 44.5203C78.1201 44.506 78.0755 44.4853 78.0344 44.4588C77.6912 44.2136 77.314 44.0191 76.9146 43.8817C76.5066 43.7423 76.0778 43.6726 75.6463 43.6754C75.1126 43.6693 74.5838 43.7775 74.0958 43.9927C73.6361 44.1971 73.2217 44.49 72.8764 44.8545C72.5296 45.2251 72.2587 45.6593 72.0787 46.1327C71.8851 46.6356 71.7881 47.1701 71.7925 47.7085C71.7883 48.2427 71.8854 48.7729 72.0787 49.2714C72.2595 49.7433 72.5303 50.176 72.8764 50.5456C73.2314 50.921 73.6609 51.2189 74.1377 51.4205C74.6145 51.6221 75.1282 51.723 75.6463 51.7168C76.0819 51.7184 76.5148 51.6487 76.9276 51.5105C77.3293 51.3751 77.7081 51.1802 78.0513 50.9324C78.0918 50.9014 78.1383 50.8791 78.1879 50.867C78.2348 50.856 78.2747 50.8481 78.3076 50.8422C78.3667 50.8489 78.4235 50.8687 78.4738 50.9001C78.5242 50.9315 78.5669 50.9737 78.5988 51.0236L79.4194 52.4011C79.4499 52.4569 79.467 52.519 79.4692 52.5825C79.4715 52.6525 79.4461 52.7205 79.3984 52.7719C79.3492 52.8236 79.2951 52.8704 79.2369 52.9118C78.7185 53.258 78.1531 53.5288 77.5578 53.716C76.9449 53.908 76.3058 54.004 75.6633 54.0006C75.0934 54.0025 74.5259 53.9278 73.9762 53.7785C73.4457 53.6338 72.9367 53.4201 72.4626 53.1428C71.5257 52.5945 70.7441 51.8186 70.1912 50.8878C69.912 50.4178 69.6971 49.9129 69.552 49.3864C69.3271 48.5739 69.2677 47.7248 69.3775 46.8892C69.4872 46.0535 69.7639 45.2481 70.1912 44.5203C70.4653 44.0529 70.798 43.6221 71.1813 43.2381C71.5634 42.8555 71.9942 42.5241 72.4626 42.2524C72.938 41.9779 73.4466 41.7646 73.9762 41.6177C75.1442 41.2989 76.3792 41.3161 77.5378 41.6673C78.1286 41.8514 78.6897 42.1189 79.204 42.4616Z" fill="#F5F5F5"/>
<path d="M84.1785 41.9346C84.1794 41.8413 84.2149 41.7516 84.2782 41.6827C84.3103 41.6458 84.3504 41.6167 84.3955 41.5974C84.4406 41.5782 84.4895 41.5694 84.5385 41.5716H86.1907C86.2894 41.5735 86.3839 41.6116 86.4559 41.6787C86.4945 41.7094 86.5257 41.7484 86.5471 41.7926C86.5685 41.8369 86.5796 41.8855 86.5796 41.9346V46.2067H92.1434V41.9346C92.1421 41.8397 92.1779 41.748 92.2431 41.6787C92.2768 41.643 92.3179 41.615 92.3635 41.5965C92.4091 41.578 92.4581 41.5695 92.5073 41.5716H94.1356C94.2394 41.5707 94.3402 41.6057 94.4208 41.6708C94.4599 41.7016 94.4912 41.7413 94.512 41.7864C94.5328 41.8316 94.5426 41.881 94.5404 41.9306V53.4597C94.5404 53.7017 94.4108 53.8226 94.1516 53.8226H92.5073C92.2647 53.8226 92.1434 53.7017 92.1434 53.4597V48.4706H86.5796V53.4597C86.5796 53.7017 86.4446 53.8226 86.1747 53.8226H84.5385C84.3012 53.8226 84.1825 53.7106 84.1825 53.4845L84.1785 41.9346Z" fill="#F5F5F5"/>
<path d="M99.7184 41.9428C99.7168 41.8454 99.7524 41.7511 99.8181 41.679C99.8523 41.6425 99.8942 41.6141 99.9407 41.5955C99.9872 41.577 100.037 41.569 100.087 41.5719H101.995C102.072 41.5717 102.147 41.5901 102.215 41.6254C102.29 41.6666 102.354 41.7247 102.402 41.795C103.347 43.137 104.284 44.4689 105.212 45.7904C106.141 47.112 107.078 48.4438 108.023 49.7858V41.8852C108.035 41.7958 108.08 41.7137 108.148 41.6542C108.216 41.5991 108.301 41.5699 108.388 41.5719H109.984C110.088 41.5695 110.19 41.6047 110.27 41.671C110.309 41.7026 110.341 41.7429 110.362 41.7887C110.383 41.8345 110.392 41.8845 110.39 41.9348V53.4778C110.39 53.7039 110.261 53.8159 110.001 53.8159H108.206C108.084 53.8159 107.971 53.7416 107.866 53.5938C106.893 52.1916 105.924 50.7907 104.959 49.3911C103.995 47.9916 103.029 46.5884 102.062 45.1815V53.453C102.069 53.5518 102.038 53.6497 101.974 53.7257C101.933 53.76 101.885 53.7857 101.834 53.8012C101.782 53.8167 101.728 53.8217 101.675 53.8159H100.079C100.029 53.8197 99.9779 53.8128 99.9301 53.7958C99.8823 53.7787 99.8387 53.7518 99.8021 53.7168C99.7407 53.6444 99.7093 53.5515 99.7144 53.457L99.7184 41.9428Z" fill="#F5F5F5"/>
<path d="M115.068 47.7084C115.065 46.5895 115.363 45.4902 115.93 44.5241C116.206 44.0586 116.539 43.6292 116.921 43.2459C117.303 42.863 117.734 42.5319 118.203 42.2612C118.678 41.9863 119.187 41.7727 119.716 41.6255C120.818 41.3241 121.981 41.3241 123.083 41.6255C123.612 41.7727 124.121 41.9863 124.596 42.2612C125.539 42.8074 126.323 43.587 126.873 44.5241C127.149 44.9983 127.363 45.5055 127.511 46.0334C127.665 46.5822 127.741 47.1495 127.739 47.7193C127.742 48.2851 127.665 48.8485 127.511 49.3932C127.362 49.9184 127.148 50.4228 126.873 50.8946C126.6 51.3606 126.266 51.7891 125.881 52.1689C125.084 52.9511 124.094 53.5117 123.011 53.7946C121.927 54.0776 120.788 54.073 119.707 53.7813C118.118 53.3419 116.762 52.3054 115.926 50.8906C115.361 49.9258 115.064 48.8282 115.068 47.7113V47.7084ZM117.461 47.6915C117.456 48.2257 117.558 48.7556 117.76 49.2504C117.953 49.7198 118.234 50.1481 118.59 50.5118C118.945 50.8726 119.368 51.1612 119.834 51.3616C120.324 51.5684 120.852 51.675 121.384 51.675C121.917 51.675 122.444 51.5684 122.935 51.3616C123.402 51.1602 123.826 50.8717 124.183 50.5118C124.54 50.149 124.823 49.7206 125.016 49.2504C125.42 48.2527 125.42 47.1383 125.016 46.1405C124.629 45.1898 123.881 44.4286 122.935 44.0214C122.444 43.8146 121.917 43.708 121.384 43.708C120.852 43.708 120.324 43.8146 119.834 44.0214C119.367 44.2225 118.944 44.5126 118.59 44.8752C117.857 45.6312 117.451 46.6418 117.458 47.6915H117.461Z" fill="#F5F5F5"/>
<path d="M132.415 41.934C132.414 41.8391 132.45 41.7474 132.515 41.6781C132.552 41.6413 132.595 41.6126 132.644 41.5941C132.693 41.5756 132.745 41.5678 132.796 41.571H134.441C134.537 41.5708 134.629 41.6061 134.701 41.6702C134.739 41.7035 134.768 41.7449 134.788 41.7913C134.807 41.8377 134.815 41.8878 134.812 41.938V51.563H140.003C140.051 51.5618 140.098 51.5699 140.142 51.587C140.186 51.604 140.227 51.6296 140.261 51.6622C140.297 51.6983 140.325 51.7416 140.344 51.7893C140.362 51.8369 140.371 51.8878 140.368 51.9389V53.4482C140.37 53.5443 140.334 53.6372 140.269 53.708C140.235 53.7449 140.194 53.774 140.149 53.7932C140.103 53.8124 140.053 53.8212 140.003 53.8191H132.779C132.537 53.8191 132.415 53.6981 132.415 53.4561V41.934Z" fill="#F5F5F5"/>
<path d="M144.042 47.7084C144.039 46.5895 144.337 45.4902 144.904 44.5241C145.18 44.0586 145.513 43.6292 145.895 43.2459C146.277 42.863 146.708 42.5319 147.177 42.2612C147.652 41.9863 148.161 41.7727 148.69 41.6255C149.792 41.3241 150.955 41.3241 152.056 41.6255C152.586 41.7727 153.095 41.9863 153.57 42.2612C154.04 42.5326 154.472 42.8636 154.855 43.2459C155.239 43.6279 155.572 44.0575 155.846 44.5241C156.123 44.9983 156.337 45.5055 156.485 46.0334C156.638 46.5822 156.715 47.1495 156.713 47.7193C156.715 48.2851 156.639 48.8485 156.485 49.3932C156.336 49.9184 156.122 50.4228 155.846 50.8946C155.573 51.3604 155.24 51.7888 154.855 52.1689C154.058 52.9511 153.068 53.5117 151.985 53.7946C150.901 54.0776 149.762 54.073 148.681 53.7813C147.345 53.4167 146.167 52.6247 145.328 51.5276C144.489 50.4305 144.037 49.0894 144.042 47.7113V47.7084ZM146.435 47.6915C146.43 48.2257 146.531 48.7556 146.734 49.2504C146.927 49.7198 147.208 50.1481 147.563 50.5118C147.919 50.8723 148.341 51.1609 148.807 51.3616C149.297 51.5685 149.825 51.6751 150.358 51.6751C150.891 51.6751 151.418 51.5685 151.909 51.3616C152.376 51.1605 152.799 50.872 153.156 50.5118C153.514 50.1493 153.797 49.7208 153.99 49.2504C154.394 48.2527 154.394 47.1383 153.99 46.1405C153.602 45.1904 152.855 44.4294 151.909 44.0214C151.418 43.8145 150.891 43.708 150.358 43.708C149.825 43.708 149.297 43.8145 148.807 44.0214C148.34 44.2228 147.918 44.5128 147.563 44.8752C146.831 45.6312 146.425 46.6418 146.432 47.6915H146.435Z" fill="#F5F5F5"/>
<path d="M169.035 48.6972C169.031 48.6006 169.063 48.5058 169.127 48.4325C169.163 48.3976 169.206 48.3708 169.253 48.3537C169.3 48.3366 169.35 48.3296 169.4 48.3333H170.752C170.849 48.3348 170.943 48.3698 171.017 48.4325C171.058 48.4637 171.09 48.504 171.111 48.55C171.133 48.596 171.144 48.6465 171.142 48.6972V52.4854C171.142 52.5517 171.124 52.6168 171.092 52.6748C171.047 52.7468 170.984 52.8065 170.91 52.8483C170.904 52.8483 170.901 52.8483 170.901 52.8483C170.901 52.8483 170.901 52.8483 170.893 52.8483C170.627 53.0332 170.347 53.196 170.055 53.3352C169.753 53.4796 169.439 53.5997 169.118 53.6942C168.789 53.7907 168.454 53.865 168.115 53.9164C167.775 53.9686 167.431 53.9947 167.087 53.9947C166.518 53.9961 165.952 53.9214 165.404 53.7726C164.873 53.629 164.364 53.4152 163.89 53.1369C162.955 52.5866 162.175 51.8111 161.622 50.8819C161.343 50.4118 161.128 49.9069 160.983 49.3805C160.759 48.5701 160.7 47.7232 160.809 46.8897C160.919 46.0562 161.195 45.253 161.622 44.5273C161.897 44.0616 162.23 43.6322 162.613 43.249C162.995 42.8648 163.426 42.5315 163.894 42.2574C164.369 41.9805 164.878 41.7655 165.408 41.6177C165.957 41.4656 166.525 41.3895 167.095 41.3916C167.488 41.3906 167.881 41.4237 168.268 41.4908C168.654 41.5592 169.033 41.6628 169.4 41.8002C169.538 41.8557 169.703 41.9245 169.894 42.0065C170.08 42.0868 170.261 42.1778 170.437 42.2792C170.592 42.3662 170.737 42.4682 170.872 42.5836C170.922 42.619 170.963 42.6645 170.994 42.7172C171.025 42.7699 171.044 42.8285 171.05 42.8891C171.04 42.9635 171.015 43.0351 170.975 43.0993C170.926 43.1985 170.864 43.3046 170.789 43.4255C170.714 43.5465 170.63 43.6715 170.536 43.8004C170.441 43.9293 170.351 44.0463 170.263 44.1504C170.174 44.2546 170.094 44.3418 170.022 44.4113C169.98 44.4616 169.921 44.4965 169.857 44.5104C169.816 44.5096 169.775 44.5029 169.736 44.4906C169.683 44.4737 169.634 44.4471 169.59 44.4122C169.229 44.1635 168.832 43.969 168.413 43.8351C167.983 43.6925 167.532 43.6199 167.079 43.6199C166.538 43.6137 166.002 43.719 165.504 43.9291C165.007 44.1392 164.558 44.4496 164.187 44.8407C163.46 45.6147 163.057 46.6353 163.059 47.6946C163.056 48.2371 163.165 48.7744 163.379 49.2734C163.582 49.7529 163.875 50.1902 164.241 50.5625C164.606 50.9294 165.038 51.2233 165.514 51.4283C166.003 51.6402 166.531 51.7483 167.065 51.7456C167.267 51.7459 167.47 51.7306 167.67 51.7C167.859 51.6723 168.045 51.6339 168.229 51.585C168.389 51.5432 168.546 51.4909 168.698 51.4283C168.816 51.381 168.93 51.3243 169.038 51.2587L169.035 48.6972Z" fill="#F5F5F5"/>
<path d="M176.208 41.9341C176.206 41.8407 176.238 41.7497 176.299 41.6783C176.333 41.6412 176.376 41.6124 176.423 41.5938C176.47 41.5753 176.521 41.5675 176.571 41.5712H178.216C178.314 41.5723 178.407 41.6074 178.481 41.6704C178.521 41.7014 178.553 41.7416 178.574 41.7874C178.596 41.8333 178.606 41.8836 178.604 41.9341V53.4553C178.604 53.6973 178.475 53.8182 178.216 53.8182H176.571C176.329 53.8182 176.208 53.6973 176.208 53.4553V41.9341Z" fill="#F5F5F5"/>
<path d="M183.787 41.9667C183.787 41.7023 183.909 41.5701 184.152 41.5701H192.146C192.203 41.5645 192.261 41.5725 192.314 41.5934C192.367 41.6142 192.415 41.6474 192.453 41.6901C192.515 41.7767 192.547 41.8812 192.544 41.9876V43.4443C192.546 43.542 192.51 43.6367 192.444 43.7091C192.404 43.7497 192.356 43.7812 192.302 43.8012C192.248 43.8212 192.191 43.8294 192.134 43.8251H186.237V46.3241H190.782C190.829 46.3163 190.876 46.3185 190.922 46.3307C190.968 46.3428 191.011 46.3646 191.047 46.3945C191.084 46.4332 191.112 46.4794 191.129 46.5299C191.146 46.5804 191.153 46.634 191.147 46.6871V48.1795C191.148 48.2739 191.119 48.3664 191.064 48.4433C191.033 48.483 190.993 48.5145 190.946 48.5347C190.9 48.555 190.849 48.5634 190.799 48.5593H186.237V51.5531H192.349C192.504 51.5531 192.607 51.5859 192.655 51.6523C192.712 51.7437 192.738 51.8506 192.73 51.9577V53.4651C192.73 53.6958 192.609 53.8115 192.365 53.8121H184.156C184.063 53.8147 183.973 53.7857 183.899 53.7298C183.861 53.6976 183.832 53.6568 183.813 53.6109C183.794 53.565 183.787 53.5154 183.791 53.4661L183.787 41.9667Z" fill="#F5F5F5"/>
<path d="M204.203 44.8366C204.133 44.8378 204.064 44.8193 204.004 44.7831C203.931 44.7399 203.862 44.6918 203.796 44.6393L203.779 44.6314C203.652 44.5071 203.516 44.3911 203.373 44.2843C203.198 44.1523 203.012 44.0339 202.818 43.9303C202.607 43.8177 202.386 43.7238 202.158 43.6496C201.927 43.5731 201.685 43.5343 201.441 43.5346C201.164 43.5292 200.888 43.5626 200.62 43.6338C200.406 43.6916 200.203 43.7866 200.022 43.9144C199.87 44.0234 199.745 44.166 199.657 44.3309C199.575 44.4889 199.532 44.6645 199.533 44.8426C199.53 45.0325 199.596 45.2171 199.719 45.3622C199.862 45.5247 200.033 45.6592 200.226 45.7589C200.461 45.8843 200.707 45.9904 200.959 46.0762C201.236 46.1721 201.526 46.267 201.83 46.3608C202.178 46.4653 202.524 46.578 202.866 46.699C203.201 46.8165 203.529 46.9529 203.849 47.1076C204.153 47.2533 204.445 47.4213 204.723 47.6103C204.985 47.7876 205.22 48.0013 205.421 48.245C205.618 48.4855 205.775 48.7557 205.886 49.0453C206.003 49.3628 206.06 49.6989 206.056 50.0369C206.064 50.5997 205.939 51.1565 205.691 51.6623C205.45 52.1437 205.106 52.5671 204.684 52.9028C204.234 53.2582 203.722 53.5272 203.174 53.6962C202.572 53.8836 201.944 53.9766 201.312 53.9718C200.885 53.9715 200.46 53.9219 200.044 53.8241C199.627 53.7259 199.221 53.5847 198.834 53.4026C198.447 53.2213 198.079 53.0017 197.737 52.7471C197.396 52.4963 197.085 52.2071 196.811 51.8854V51.8933L196.795 51.8606C196.69 51.7606 196.626 51.6259 196.613 51.4818C196.613 51.4204 196.63 51.3603 196.663 51.3082C196.705 51.2423 196.755 51.1814 196.811 51.1268L197.086 50.8551C197.168 50.7837 197.257 50.7033 197.351 50.6151C197.441 50.5306 197.535 50.4508 197.633 50.3761C197.727 50.3047 197.814 50.2442 197.894 50.1946C197.953 50.1523 198.022 50.1266 198.094 50.1202C198.172 50.1203 198.248 50.1465 198.309 50.1946C198.368 50.2375 198.424 50.2846 198.476 50.3354L198.509 50.3681H198.501C198.704 50.5573 198.921 50.731 199.151 50.8878C199.388 51.0507 199.637 51.1981 199.893 51.3291C200.136 51.4538 200.39 51.556 200.652 51.6345C200.882 51.7049 201.121 51.7423 201.361 51.7456C201.65 51.7477 201.937 51.7086 202.215 51.6295C202.462 51.5617 202.695 51.4516 202.904 51.3043C203.09 51.1709 203.245 50.9986 203.357 50.7995C203.469 50.5977 203.526 50.3704 203.523 50.1401C203.528 49.9135 203.452 49.6926 203.308 49.5173C203.15 49.3327 202.959 49.179 202.744 49.0641C202.495 48.927 202.232 48.8151 201.96 48.7299C201.671 48.6367 201.379 48.5488 201.085 48.4661C200.48 48.2886 199.889 48.0682 199.315 47.8067C198.858 47.6021 198.432 47.335 198.05 47.0133C197.729 46.7402 197.471 46.4021 197.292 46.0217C197.118 45.6341 197.032 45.2134 197.039 44.7891C197.031 44.3118 197.135 43.8393 197.343 43.409C197.55 42.9787 197.856 42.6024 198.235 42.3099C198.648 41.9949 199.114 41.7576 199.612 41.6098C200.196 41.4351 200.803 41.3502 201.412 41.3579C201.932 41.3605 202.449 41.4397 202.946 41.5929C203.453 41.7443 203.938 41.962 204.388 42.2405C204.521 42.3224 204.657 42.416 204.795 42.5211C204.933 42.6203 205.06 42.7313 205.176 42.8384C205.282 42.9334 205.377 43.0383 205.462 43.1518C205.522 43.2116 205.56 43.289 205.572 43.3724C205.583 43.4558 205.567 43.5406 205.525 43.6139C205.492 43.6811 205.45 43.7435 205.4 43.7994L205.151 44.0631V44.0562L204.895 44.3289C204.811 44.4178 204.722 44.5019 204.629 44.5808C204.541 44.6542 204.46 44.7167 204.388 44.7662C204.335 44.8075 204.27 44.8321 204.203 44.8366Z" fill="#F5F5F5"/>
</g>
<defs>
<clipPath id="clip0_97_984">
<rect width="240" height="54" fill="white"/>
</clipPath>
</defs>
</svg>
